<?xml version="1.0" standalone="no"?>
<!DOCTYPE svg PUBLIC "-//W3C//DTD SVG 20010904//EN"
 "http://www.w3.org/TR/2001/REC-SVG-20010904/DTD/svg10.dtd">
<svg version="1.0" xmlns="http://www.w3.org/2000/svg"
 width="193.000000pt" height="193.000000pt" viewBox="0 0 193.000000 193.000000"
 preserveAspectRatio="xMidYMid meet">
<metadata>
Created by potrace 1.11, written by Peter Selinger 2001-2013
</metadata>
<g transform="translate(0.000000,193.000000) scale(0.100000,-0.100000)"
fill="#000000" stroke="none">
<path d="M237 1903 c-14 -13 -6 -62 17 -115 l25 -55 -51 -54 c-68 -73 -132
-185 -170 -299 -30 -90 -32 -103 -33 -250 0 -144 2 -161 28 -240 57 -174 119
-252 165 -207 14 15 17 39 18 145 2 142 16 207 68 317 29 63 135 195 156 195
4 0 15 -20 24 -44 23 -59 49 -82 81 -70 16 6 89 102 214 281 104 150 192 281
195 291 4 11 -1 28 -11 41 -17 19 -40 23 -323 46 -319 26 -392 29 -403 18z"/>
<path d="M1095 1876 c29 -43 16 -151 -24 -218 -18 -29 -31 -57 -30 -63 1 -5
32 -16 67 -23 229 -46 417 -232 478 -472 24 -94 15 -252 -18 -342 -91 -244
-298 -403 -552 -425 -234 -19 -478 116 -591 328 l-32 61 -7 -59 c-7 -65 -32
-113 -71 -139 -26 -17 -104 -23 -142 -10 -32 10 -29 -3 19 -75 106 -159 286
-298 468 -361 145 -50 355 -64 508 -32 358 74 652 368 726 726 20 97 21 294 1
385 -57 270 -222 496 -460 632 -80 46 -224 96 -304 107 l-53 7 17 -27z"/>
<path d="M987 1392 c-13 -14 -23 -71 -40 -233 l-23 -214 -114 3 c-63 1 -138 5
-166 8 -44 5 -55 3 -73 -15 -24 -24 -27 -49 -8 -75 7 -10 99 -48 207 -87 235
-83 275 -88 325 -35 18 19 35 48 37 65 3 21 -44 537 -52 568 0 1 -7 9 -16 17
-21 21 -57 20 -77 -2z"/>
</g>
</svg>
